<?xml version="1.0" encoding="UTF-8" standalone="no"?>
<!DOCTYPE svg PUBLIC "-//W3C//DTD SVG 1.1//EN" "http://www.w3.org/Graphics/SVG/1.1/DTD/svg11.dtd">
<svg width="100%" height="100%" viewBox="0 0 350 428" version="1.1" xmlns="http://www.w3.org/2000/svg" xmlns:xlink="http://www.w3.org/1999/xlink" xml:space="preserve" xmlns:serif="http://www.serif.com/" style="fill-rule:evenodd;clip-rule:evenodd;stroke-linecap:round;stroke-linejoin:round;stroke-miterlimit:1.5;">
    <g id="Hubertus">
        <g id="Hintergrund">
            <g transform="matrix(2.36803,0,0,1.39178,-342.07,-71.4449)">
                <ellipse cx="217.882" cy="209" rx="67.25" ry="141.5" style="fill:rgb(235,235,235);"/>
                <path d="M217.882,67.5C254.999,67.5 285.132,130.904 285.132,209C285.132,287.096 254.999,350.5 217.882,350.5C180.766,350.5 150.632,287.096 150.632,209C150.632,130.904 180.766,67.5 217.882,67.5ZM217.882,71.14C181.81,71.14 152.772,133.101 152.772,209C152.772,284.899 181.81,346.86 217.882,346.86C253.955,346.86 282.993,284.899 282.993,209C282.993,133.101 253.955,71.14 217.882,71.14Z"/>
            </g>
            <g transform="matrix(2.20446,0,0,1.31757,-305.931,-54.936)">
                <ellipse cx="217.882" cy="209" rx="67.25" ry="141.5" style="fill:rgb(47,83,43);"/>
                <path d="M217.882,67.5C254.999,67.5 285.132,130.904 285.132,209C285.132,287.096 254.999,350.5 217.882,350.5C180.766,350.5 150.632,287.096 150.632,209C150.632,130.904 180.766,67.5 217.882,67.5ZM217.882,69.726C181.408,69.726 151.963,132.255 151.963,209C151.963,285.745 181.408,348.274 217.882,348.274C254.357,348.274 283.802,285.745 283.802,209C283.802,132.255 254.357,69.726 217.882,69.726Z"/>
            </g>
        </g>
        <g id="Banner">
            <g transform="matrix(1,0,0,1,-3.79713,-0.565687)">
                <path d="M42.884,234.232C42.884,234.232 50.784,243.532 64.584,248.432C64.584,248.432 68.284,239.132 76.884,227.932C76.884,227.932 78.884,241.632 100.584,267.132C100.584,267.132 104.484,280.332 87.684,267.832C87.684,267.832 65.384,268.332 53.284,270.932C53.284,270.932 40.384,249.732 42.884,234.232Z" style="fill:white;stroke:black;stroke-width:2.4px;"/>
            </g>
            <g transform="matrix(-0.999823,-0.0188223,-0.0188223,0.999823,356.871,1.19284)">
                <path d="M42.884,234.232C42.884,234.232 50.784,243.532 64.584,248.432C64.584,248.432 68.284,239.132 76.884,227.932C76.884,227.932 78.884,241.632 100.584,267.132C100.584,267.132 104.484,280.332 87.684,267.832C87.684,267.832 65.384,268.332 53.284,270.932C53.284,270.932 40.384,249.732 42.884,234.232Z" style="fill:white;stroke:black;stroke-width:2.4px;"/>
            </g>
            <path d="M174,400.333L174,400.334C174,400.334 74.216,402.92 39.45,272.334L81.157,267.734C81.157,267.734 101.607,361.334 173.882,361.334L174,361.331C246.275,361.331 266.725,267.731 266.725,267.731L308.433,272.331C274.359,400.314 177.833,400.381 174,400.333Z" style="fill:white;stroke:black;stroke-width:2.4px;"/>
            <g transform="matrix(1,0,0,1,0.8217,-1.1913)">
                <g transform="matrix(0.39097,0.920403,-0.920403,0.39097,302.764,125.56)">
                    <text x="56.505px" y="291.558px" style="font-family:'ArialMT', 'Arial', sans-serif;font-size:21.333px;">H</text>
                </g>
                <g transform="matrix(0.457121,0.889404,-0.889404,0.457121,306.652,110.454)">
                    <text x="62.847px" y="306.423px" style="font-family:'ArialMT', 'Arial', sans-serif;font-size:21.333px;">U</text>
                </g>
                <g transform="matrix(0.524025,0.851703,-0.851703,0.524025,306.659,92.8393)">
                    <text x="70.267px" y="320.785px" style="font-family:'ArialMT', 'Arial', sans-serif;font-size:21.333px;">B</text>
                </g>
                <g transform="matrix(0.59195,0.805975,-0.805975,0.59195,300.694,73.1455)">
                    <text x="78.109px" y="333.536px" style="font-family:'ArialMT', 'Arial', sans-serif;font-size:21.333px;">E</text>
                </g>
                <g transform="matrix(0.669694,0.742637,-0.742637,0.669694,285.422,49.6077)">
                    <text x="86.944px" y="345.666px" style="font-family:'ArialMT', 'Arial', sans-serif;font-size:21.333px;">R</text>
                </g>
                <g transform="matrix(0.740685,0.671852,-0.671852,0.740685,265.384,27.1462)">
                    <text x="97.526px" y="357.362px" style="font-family:'ArialMT', 'Arial', sans-serif;font-size:21.333px;">T</text>
                </g>
                <g transform="matrix(0.817202,0.576351,-0.576351,0.817202,231.026,4.93918)">
                    <text x="107.726px" y="366.675px" style="font-family:'ArialMT', 'Arial', sans-serif;font-size:21.333px;">U</text>
                </g>
                <g transform="matrix(0.890697,0.454597,-0.454597,0.890697,184.116,-13.9088)">
                    <text x="120.982px" y="375.92px" style="font-family:'ArialMT', 'Arial', sans-serif;font-size:21.333px;">S</text>
                </g>
                <g transform="matrix(0.968212,0.250131,-0.250131,0.968212,100.79,-22.9325)">
                    <text x="140.62px" y="385.08px" style="font-family:'ArialMT', 'Arial', sans-serif;font-size:21.333px;">P</text>
                </g>
                <g transform="matrix(0.993858,0.110665,-0.110665,0.993858,43.9769,-14.7799)">
                    <text x="155.134px" y="388.778px" style="font-family:'ArialMT', 'Arial', sans-serif;font-size:21.333px;">F</text>
                </g>
                <g transform="matrix(0.999583,-0.0288708,0.0288708,0.999583,-11.2004,5.03766)">
                    <text x="168.853px" y="390.389px" style="font-family:'ArialMT', 'Arial', sans-serif;font-size:21.333px;">R</text>
                </g>
                <g transform="matrix(0.986479,-0.163889,0.163889,0.986479,-61.3969,35.5966)">
                    <text x="185.033px" y="389.891px" style="font-family:'ArialMT', 'Arial', sans-serif;font-size:21.333px;">A</text>
                </g>
                <g transform="matrix(0.950456,-0.310859,0.310859,0.950456,-110.534,81.3142)">
                    <text x="199.833px" y="387.424px" style="font-family:'ArialMT', 'Arial', sans-serif;font-size:21.333px;">U</text>
                </g>
                <g transform="matrix(0.889619,-0.456704,0.456704,0.889619,-150.855,140.481)">
                    <text x="215.193px" y="382.323px" style="font-family:'ArialMT', 'Arial', sans-serif;font-size:21.333px;">N</text>
                </g>
                <g transform="matrix(0.809767,-0.586751,0.586751,0.809767,-176.288,206.01)">
                    <text x="229.563px" y="374.875px" style="font-family:'ArialMT', 'Arial', sans-serif;font-size:21.333px;">D</text>
                </g>
                <g transform="matrix(0.721839,-0.692061,0.692061,0.721839,-185.363,269.561)">
                    <text x="242.65px" y="365.371px" style="font-family:'ArialMT', 'Arial', sans-serif;font-size:21.333px;">O</text>
                </g>
                <g transform="matrix(0.629734,-0.776811,0.776811,0.629734,-179.992,329.008)">
                    <text x="255.13px" y="353.314px" style="font-family:'ArialMT', 'Arial', sans-serif;font-size:21.333px;">R</text>
                </g>
                <g transform="matrix(0.556274,-0.830999,0.830999,0.556274,-165.427,371.626)">
                    <text x="265.273px" y="340.716px" style="font-family:'ArialMT', 'Arial', sans-serif;font-size:21.333px;">F</text>
                </g>
                <g transform="matrix(0.465995,-0.884787,0.884787,0.465995,-138.707,417.203)">
                    <text x="276.276px" y="323.513px" style="font-family:'ArialMT', 'Arial', sans-serif;font-size:21.333px;">e</text>
                </g>
                <g transform="matrix(0.422847,-0.906201,0.906201,0.422847,-120.184,435.862)">
                    <text x="282.086px" y="312.283px" style="font-family:'ArialMT', 'Arial', sans-serif;font-size:21.333px;">.</text>
                </g>
                <g transform="matrix(0.375981,-0.926627,0.926627,0.375981,-105.99,455.201)">
                    <text x="284.977px" y="306.294px" style="font-family:'ArialMT', 'Arial', sans-serif;font-size:21.333px;">V</text>
                </g>
                <g transform="matrix(0.3353,-0.942111,0.942111,0.3353,-84.5227,468.593)">
                    <text x="289.818px" y="294.196px" style="font-family:'ArialMT', 'Arial', sans-serif;font-size:21.333px;">.</text>
                </g>
            </g>
        </g>
        <g id="Stricherl">
            <path d="M110.53,92.785C110.53,92.785 165.004,21.236 245.497,92.785" style="fill:none;stroke:black;stroke-width:2.4px;"/>
            <g>
                <g transform="matrix(0.964256,-0.264974,0.264974,0.964256,-10.6418,41.501)">
                    <text x="148.503px" y="60.194px" style="font-family:'ArialMT', 'Arial', sans-serif;font-size:21.333px;">1</text>
                </g>
                <g transform="matrix(0.995859,-0.0909122,0.0909122,0.995859,-4.49653,14.9251)">
                    <text x="161.582px" y="56.82px" style="font-family:'ArialMT', 'Arial', sans-serif;font-size:21.333px;">9</text>
                </g>
                <g transform="matrix(0.997073,0.0764544,-0.0764544,0.997073,4.77361,-13.2178)">
                    <text x="175.018px" y="55.737px" style="font-family:'ArialMT', 'Arial', sans-serif;font-size:21.333px;">5</text>
                </g>
                <g transform="matrix(0.973745,0.227641,-0.227641,0.973745,17.9015,-41.3881)">
                    <text x="188.377px" y="56.913px" style="font-family:'ArialMT', 'Arial', sans-serif;font-size:21.333px;">2</text>
                </g>
            </g>
            <path d="M305.392,221.79C305.392,221.79 310.813,181.137 283.169,125.037" style="fill:none;stroke:black;stroke-width:2.4px;"/>
            <path d="M236.824,268.134C236.824,268.134 272.599,249.434 270.702,185.474" style="fill:none;stroke:black;stroke-width:2.4px;"/>
            <path d="M216.227,247.808C216.227,247.808 238.451,234.528 238.993,197.941" style="fill:none;stroke:black;stroke-width:2.4px;"/>
            <path d="M111.072,200.651C111.072,200.651 109.717,229.108 134.65,247.808" style="fill:none;stroke:black;stroke-width:2.4px;"/>
            <path d="M82.073,180.053C82.073,180.053 74.484,224.063 112.156,268.405" style="fill:none;stroke:black;stroke-width:2.4px;"/>
            <path d="M59.307,145.801C59.307,145.801 43.588,181.575 50.364,227.648" style="fill:none;stroke:black;stroke-width:2.4px;"/>
        </g>
        <g id="Kreuz">
            <path d="M164.191,111.923C164.191,111.923 159.042,100.811 154.706,94.578" style="fill:none;stroke:black;stroke-width:2.4px;"/>
            <path d="M189.125,123.848L209.452,103.251" style="fill:none;stroke:black;stroke-width:2.4px;"/>
            <path d="M186.144,111.11L197.527,94.578" style="fill:none;stroke:black;stroke-width:2.4px;"/>
            <path d="M175.303,102.709L175.845,87.532" style="fill:none;stroke:black;stroke-width:2.4px;"/>
            <rect x="172.943" y="110.061" width="6" height="78.2"/>
            <path d="M178.943,110.061L178.943,188.261L172.943,188.261L172.943,110.061L178.943,110.061ZM176.543,112.461L175.343,112.461L175.343,185.861L176.543,185.861L176.543,112.461Z"/>
            <rect x="150.143" y="132.061" width="50" height="5.8"/>
            <path d="M200.143,132.061L200.143,137.861L150.143,137.861L150.143,132.061L200.143,132.061ZM197.743,134.461C197.743,134.461 152.543,134.461 152.543,134.461L152.543,135.461C152.543,135.461 197.743,135.461 197.743,135.461L197.743,134.461Z"/>
            <path d="M161.21,125.203C161.21,125.203 144.136,105.69 138.987,101.896" style="fill:none;stroke:black;stroke-width:2.4px;"/>
            <path d="M145.22,126.287C145.22,126.287 134.108,118.97 127.604,117.615" style="fill:none;stroke:black;stroke-width:2.4px;"/>
            <path d="M140.884,135.231L120.828,135.773" style="fill:none;stroke:black;stroke-width:2.4px;"/>
            <path d="M147.117,144.446L130.314,150.408" style="fill:none;stroke:black;stroke-width:2.4px;"/>
            <path d="M161.481,145.259L139.258,163.688" style="fill:none;stroke:black;stroke-width:2.4px;"/>
            <path d="M166.631,149.595L155.79,169.108" style="fill:none;stroke:black;stroke-width:2.4px;"/>
            <path d="M184.247,149.324L196.714,171.005" style="fill:none;stroke:black;stroke-width:2.4px;"/>
            <path d="M190.209,146.343L214.872,163.417" style="fill:none;stroke:black;stroke-width:2.4px;"/>
            <path d="M201.592,143.632L218.666,150.679" style="fill:none;stroke:black;stroke-width:2.4px;"/>
            <path d="M214.059,136.044L231.946,136.044" style="fill:none;stroke:black;stroke-width:2.4px;"/>
            <path d="M202.676,127.642L223.002,116.802" style="fill:none;stroke:black;stroke-width:2.4px;"/>
        </g>
        <g id="Hirsch">
            <path d="M194.788,228.663C194.788,228.663 196.873,237.598 198.362,238.491C199.851,239.385 200.149,239.683 201.34,245.044C202.531,250.404 207.892,262.317 216.231,272.146C224.57,281.974 225.762,316.522 199.851,342.135C199.851,342.135 191.214,348.985 173.94,348.985C173.94,348.985 149.22,348.389 135.52,328.137C135.52,328.137 112.886,292.994 138.499,265.594C138.499,265.594 151.007,249.809 150.412,235.215C149.816,220.622 153.688,224.494 153.688,224.494L194.788,228.663Z" style="fill:rgb(107,59,27);stroke:black;stroke-width:1.6px;"/>
            <path d="M146.54,214.07C146.54,214.07 124.799,214.367 123.309,188.159C123.309,188.159 167.388,180.415 227.549,189.052C227.549,189.052 226.059,207.815 202.829,212.283C202.829,212.283 206.105,225.983 190.023,257.254C190.023,257.254 190.023,272.146 186.151,278.4C186.151,278.4 186.151,287.335 175.429,287.037L171.855,287.335C171.855,287.335 163.218,286.144 162.623,278.996C162.623,278.996 157.857,276.613 158.751,265.296C158.751,265.296 159.346,254.872 154.879,246.235C150.412,237.598 146.242,230.152 146.54,214.07" style="fill:rgb(104,57,27);stroke:black;stroke-width:1.6px;"/>
            <path d="M162.623,278.996C162.623,278.996 171.694,282.465 186.151,278.4" style="fill:none;stroke:black;stroke-width:1.07px;"/>
            <path d="M185.247,271.587C185.247,271.587 185.122,268.465 181.125,267.091" style="fill:none;stroke:black;stroke-width:1.07px;"/>
            <path d="M163.267,271.587C163.267,271.587 163.142,268.84 167.138,266.966" style="fill:none;stroke:black;stroke-width:1.07px;"/>
            <path d="M182.499,259.099C182.499,259.099 180.251,233.247 185.122,230.625" style="fill:none;stroke:black;stroke-width:1.07px;"/>
            <path d="M146.574,214.552C146.574,214.552 155.674,217.452 157.774,223.852C157.774,223.852 151.874,225.752 146.774,221.052" style="fill:none;stroke:black;stroke-width:1.07px;"/>
            <path d="M202.874,212.852C202.874,212.852 192.974,214.152 191.774,222.152C191.774,222.152 196.674,223.752 202.374,219.652" style="fill:none;stroke:black;stroke-width:1.07px;"/>
            <path d="M157.21,223.003C157.21,223.003 162.018,232.623 164.64,242.489" style="fill:none;stroke:black;stroke-width:1.07px;"/>
            <path d="M139.913,204.274C139.913,204.274 135.167,202.9 132.919,198.404C130.671,193.908 135.292,200.277 140.662,199.403C140.662,199.403 141.287,199.278 139.913,204.274Z" style="stroke:black;stroke-width:1.6px;"/>
            <path d="M208.6,203.899C208.6,203.899 211.847,203.275 216.468,197.904C216.468,197.904 211.847,199.278 207.601,198.654C207.601,198.654 208.35,200.777 208.6,203.899Z" style="stroke:black;stroke-width:1.6px;"/>
        </g>
        <g id="Geweih">
            <path d="M160.096,183.527C160.096,183.527 89.268,157.123 111.215,114.528C111.215,114.528 116.203,108.011 109.885,96.04C109.885,96.04 106.227,106.182 100.242,110.006C100.242,110.006 90.931,104.852 89.102,88.226C89.102,88.226 81.953,90.387 85.943,104.852C85.943,104.852 80.456,103.356 77.796,97.371C77.796,97.371 74.804,110.006 83.117,116.324C83.117,116.324 94.755,123.141 97.249,141.929C97.249,141.929 81.846,143.259 67.049,124.804C67.049,124.804 61.396,139.269 84.839,148.912C84.839,148.912 99.304,152.237 111.607,161.88C111.607,161.88 99.304,170.027 79.02,157.89C79.02,157.89 73.699,167.866 96.81,175.514C96.81,175.514 105.123,177.509 115.431,174.017C115.431,174.017 122.913,172.188 131.559,177.509C131.559,177.509 141.867,181.832 131.226,184.159C131.226,184.159 124.742,185.988 113.27,183.827C113.27,183.827 114.6,189.812 121.915,191.142C129.231,192.472 144.028,188.815 154.835,190.145L160.096,183.527Z" style="fill:rgb(124,94,38);stroke:black;stroke-width:1.6px;"/>
            <path d="M190.026,182.996C190.026,182.996 263.347,155.263 238.408,111.004C238.408,111.004 235.083,101.826 240.071,95.01C240.071,95.01 244.892,106.315 250.545,109.474C250.545,109.474 258.858,104.653 262.017,86.53C262.017,86.53 268.335,90.521 264.677,104.154C264.677,104.154 269.333,102.99 272.824,97.005C272.824,97.005 276.149,105.983 266.672,115.46C266.672,115.46 257.029,121.944 252.873,140.732C252.873,140.732 270.33,140.233 282.301,123.607C282.301,123.607 290.78,130.59 271.162,144.556C271.162,144.556 245.723,152.536 239.073,160.351C239.073,160.351 250.379,168.331 271.162,156.194C271.162,156.194 275.651,165.172 254.535,173.818C254.535,173.818 243.895,175.813 233.42,172.155C233.42,172.155 226.603,170.825 215.464,178.307C215.464,178.307 212.471,181.632 220.452,183.96C220.452,183.96 226.271,185.29 238.408,182.796C238.408,182.796 238.242,188.449 225.938,191.275C225.938,191.275 199.17,188.449 192.353,188.781L190.026,182.996Z" style="fill:rgb(130,93,41);stroke:black;stroke-width:1.6px;"/>
            <path d="M159.932,182.297C159.932,182.297 170.407,177.143 166.749,186.454C166.749,186.454 161.429,195.598 155.277,198.425C155.277,198.425 144.47,204.41 149.79,192.439C149.79,192.439 153.78,186.62 159.932,182.297Z" style="fill:rgb(130,93,41);stroke:black;stroke-width:1.6px;"/>
            <path d="M185.37,186.454C185.37,186.454 178.387,176.977 192.021,181.798C192.021,181.798 195.679,184.126 201.331,190.112C201.331,190.112 208.98,201.085 198.505,197.593C198.505,197.593 189.194,192.605 185.37,186.454Z" style="fill:rgb(130,92,45);stroke:black;stroke-width:1.6px;"/>
        </g>
        <g id="Eichenlaub">
            <g id="Links">
                <path d="M123.05,273.779C123.05,273.779 123.906,268.074 128.185,269.072C128.185,269.072 132.321,270.498 128.755,278.486C128.755,278.486 133.034,277.06 134.461,279.627C134.461,279.627 136.315,284.476 130.181,288.898C130.181,288.898 135.031,287.044 135.602,290.61C135.602,290.61 135.602,294.746 132.036,297.456C132.036,297.456 137.313,297.314 136.6,300.594C136.6,300.594 138.74,302.02 133.747,305.586C133.747,305.586 132.321,306.157 130.752,309.437C130.752,309.437 131.323,311.862 126.33,311.72C126.33,311.72 121.053,309.152 118.485,309.295C118.485,309.295 115.918,308.011 115.49,305.586C115.49,305.586 114.634,303.732 117.059,302.734C117.059,302.734 120.197,301.022 116.489,298.883C116.489,298.883 111.069,297.314 114.064,293.462C114.064,293.462 115.062,292.607 117.772,292.892C117.772,292.892 112.637,289.041 112.923,285.618C112.923,285.618 112.21,282.194 118.058,282.765C118.058,282.765 114.206,277.63 117.202,274.492C117.202,274.492 118.771,272.353 123.05,273.779Z" style="fill:rgb(248,208,4);stroke:black;stroke-width:1.07px;"/>
                <g id="Faser">
                    <path d="M123.195,273.67C123.195,273.67 124.002,276.668 122.273,280.589C122.273,280.589 123.195,288.2 122.388,291.544C122.388,291.544 124.233,294.081 124.002,300.078C124.002,300.078 126.694,304.884 126.578,311.572" style="fill:none;stroke:black;stroke-width:0.53px;"/>
                    <path d="M128.731,302.5C128.731,302.5 126.171,304.678 126.217,306.402" style="fill:none;stroke:black;stroke-width:0.53px;"/>
                    <path d="M119.966,303.999C119.966,303.999 123.073,307.128 126.302,307.82" style="fill:none;stroke:black;stroke-width:0.53px;"/>
                    <path d="M119.966,297.08C119.966,297.08 123.657,299.386 124.925,301.923" style="fill:none;stroke:black;stroke-width:0.53px;"/>
                    <path d="M127.347,291.775C127.347,291.775 125.386,292.698 123.887,296.042" style="fill:none;stroke:black;stroke-width:0.53px;"/>
                    <path d="M118.582,286.124C118.582,286.124 121.842,288.823 122.649,292.167" style="fill:none;stroke:black;stroke-width:0.53px;"/>
                    <path d="M125.963,281.511C125.963,281.511 123.772,282.665 122.734,285.663" style="fill:none;stroke:black;stroke-width:0.53px;"/>
                    <path d="M119.966,276.553C119.966,276.553 120.774,280.012 122.273,281.166" style="fill:none;stroke:black;stroke-width:0.53px;"/>
                </g>
                <g transform="matrix(0.998477,0.0551646,-0.0551646,0.998477,18.0077,-8.04047)">
                    <path d="M156.711,343.955C156.711,343.955 152.575,345.096 151.006,346.665C151.006,346.665 148.439,350.231 144.73,346.95C144.73,346.95 142.733,347.235 143.304,342.956C143.304,342.956 129.754,344.668 136.6,336.966C136.6,336.966 122.194,336.823 128.755,329.549C128.755,329.549 118.058,325.84 127.471,320.706C127.471,320.706 122.337,314.572 127.899,311.292C127.899,311.292 133.319,310.864 133.605,318.281C133.605,318.281 136.029,314.287 139.025,315.143C139.025,315.143 143.019,314.43 142.163,324.985C142.163,324.985 148.439,316.997 149.865,329.691C149.865,329.691 159.136,322.411 156.711,343.955Z" style="fill:rgb(248,208,0);stroke:black;stroke-width:1.07px;"/>
                </g>
                <g id="Faser2" transform="matrix(0.998477,0.0551646,-0.0551646,0.998477,18.0077,-8.04047)">
                    <path d="M127.462,320.49C127.462,320.49 131.383,324.065 132.421,326.602C132.421,326.602 136.918,329.831 138.879,332.714C138.879,332.714 140.955,333.982 142.915,334.559C142.915,334.559 145.337,337.442 146.605,338.249C146.605,338.249 150.18,339.633 151.564,340.44C151.564,340.44 154.678,343.9 156.292,344.015" style="fill:none;stroke:black;stroke-width:0.53px;"/>
                    <path d="M146.951,343.784C146.951,343.784 149.361,343.74 154.095,342.84" style="fill:none;stroke:black;stroke-width:0.53px;"/>
                    <path d="M152.141,336.75C152.141,336.75 152.486,339.171 151.91,340.555" style="fill:none;stroke:black;stroke-width:0.53px;"/>
                    <path d="M141.877,338.364C141.877,338.364 143.146,338.48 146.721,338.134" style="fill:none;stroke:black;stroke-width:0.53px;"/>
                    <path d="M142.915,329.831C142.915,329.831 142.454,333.405 142.915,334.443" style="fill:none;stroke:black;stroke-width:0.53px;"/>
                    <path d="M132.421,331.906C132.421,331.906 137.034,331.906 139.225,332.944" style="fill:none;stroke:black;stroke-width:0.53px;"/>
                    <path d="M134.381,322.796C134.381,322.796 135.073,326.832 134.266,327.639" style="fill:none;stroke:black;stroke-width:0.53px;"/>
                    <path d="M126.194,324.065C126.194,324.065 128.961,325.91 132.651,326.602" style="fill:none;stroke:black;stroke-width:0.53px;"/>
                </g>
            </g>
            <g id="Rechts" transform="matrix(-1,0,0,1,345.209,0)">
                <path d="M123.05,273.779C123.05,273.779 123.906,268.074 128.185,269.072C128.185,269.072 132.321,270.498 128.755,278.486C128.755,278.486 133.034,277.06 134.461,279.627C134.461,279.627 136.315,284.476 130.181,288.898C130.181,288.898 135.031,287.044 135.602,290.61C135.602,290.61 135.602,294.746 132.036,297.456C132.036,297.456 137.313,297.314 136.6,300.594C136.6,300.594 138.74,302.02 133.747,305.586C133.747,305.586 132.321,306.157 130.752,309.437C130.752,309.437 131.323,311.862 126.33,311.72C126.33,311.72 121.053,309.152 118.485,309.295C118.485,309.295 115.918,308.011 115.49,305.586C115.49,305.586 114.634,303.732 117.059,302.734C117.059,302.734 120.197,301.022 116.489,298.883C116.489,298.883 111.069,297.314 114.064,293.462C114.064,293.462 115.062,292.607 117.772,292.892C117.772,292.892 112.637,289.041 112.923,285.618C112.923,285.618 112.21,282.194 118.058,282.765C118.058,282.765 114.206,277.63 117.202,274.492C117.202,274.492 118.771,272.353 123.05,273.779Z" style="fill:rgb(248,208,4);stroke:black;stroke-width:1.07px;"/>
                <g id="Faser1" serif:id="Faser">
                    <path d="M123.195,273.67C123.195,273.67 124.002,276.668 122.273,280.589C122.273,280.589 123.195,288.2 122.388,291.544C122.388,291.544 124.233,294.081 124.002,300.078C124.002,300.078 126.694,304.884 126.578,311.572" style="fill:none;stroke:black;stroke-width:0.53px;"/>
                    <path d="M128.731,302.5C128.731,302.5 126.171,304.678 126.217,306.402" style="fill:none;stroke:black;stroke-width:0.53px;"/>
                    <path d="M119.966,303.999C119.966,303.999 123.073,307.128 126.302,307.82" style="fill:none;stroke:black;stroke-width:0.53px;"/>
                    <path d="M119.966,297.08C119.966,297.08 123.657,299.386 124.925,301.923" style="fill:none;stroke:black;stroke-width:0.53px;"/>
                    <path d="M127.347,291.775C127.347,291.775 125.386,292.698 123.887,296.042" style="fill:none;stroke:black;stroke-width:0.53px;"/>
                    <path d="M118.582,286.124C118.582,286.124 121.842,288.823 122.649,292.167" style="fill:none;stroke:black;stroke-width:0.53px;"/>
                    <path d="M125.963,281.511C125.963,281.511 123.772,282.665 122.734,285.663" style="fill:none;stroke:black;stroke-width:0.53px;"/>
                    <path d="M119.966,276.553C119.966,276.553 120.774,280.012 122.273,281.166" style="fill:none;stroke:black;stroke-width:0.53px;"/>
                </g>
                <g transform="matrix(0.998477,0.0551646,-0.0551646,0.998477,18.0077,-8.04047)">
                    <path d="M156.711,343.955C156.711,343.955 152.575,345.096 151.006,346.665C151.006,346.665 148.439,350.231 144.73,346.95C144.73,346.95 142.733,347.235 143.304,342.956C143.304,342.956 129.754,344.668 136.6,336.966C136.6,336.966 122.194,336.823 128.755,329.549C128.755,329.549 118.058,325.84 127.471,320.706C127.471,320.706 122.337,314.572 127.899,311.292C127.899,311.292 133.319,310.864 133.605,318.281C133.605,318.281 136.029,314.287 139.025,315.143C139.025,315.143 143.019,314.43 142.163,324.985C142.163,324.985 148.439,316.997 149.865,329.691C149.865,329.691 159.136,322.411 156.711,343.955Z" style="fill:rgb(248,208,0);stroke:black;stroke-width:1.07px;"/>
                </g>
                <g id="Faser21" serif:id="Faser2" transform="matrix(0.998477,0.0551646,-0.0551646,0.998477,18.0077,-8.04047)">
                    <path d="M127.462,320.49C127.462,320.49 131.383,324.065 132.421,326.602C132.421,326.602 136.918,329.831 138.879,332.714C138.879,332.714 140.955,333.982 142.915,334.559C142.915,334.559 145.337,337.442 146.605,338.249C146.605,338.249 150.18,339.633 151.564,340.44C151.564,340.44 154.678,343.9 156.292,344.015" style="fill:none;stroke:black;stroke-width:0.53px;"/>
                    <path d="M146.951,343.784C146.951,343.784 149.361,343.74 154.095,342.84" style="fill:none;stroke:black;stroke-width:0.53px;"/>
                    <path d="M152.141,336.75C152.141,336.75 152.486,339.171 151.91,340.555" style="fill:none;stroke:black;stroke-width:0.53px;"/>
                    <path d="M141.877,338.364C141.877,338.364 143.146,338.48 146.721,338.134" style="fill:none;stroke:black;stroke-width:0.53px;"/>
                    <path d="M142.915,329.831C142.915,329.831 142.454,333.405 142.915,334.443" style="fill:none;stroke:black;stroke-width:0.53px;"/>
                    <path d="M132.421,331.906C132.421,331.906 137.034,331.906 139.225,332.944" style="fill:none;stroke:black;stroke-width:0.53px;"/>
                    <path d="M134.381,322.796C134.381,322.796 135.073,326.832 134.266,327.639" style="fill:none;stroke:black;stroke-width:0.53px;"/>
                    <path d="M126.194,324.065C126.194,324.065 128.961,325.91 132.651,326.602" style="fill:none;stroke:black;stroke-width:0.53px;"/>
                </g>
            </g>
        </g>
        <g id="Herz" transform="matrix(1,0,0,1,0,-1)">
            <g transform="matrix(1.15672,0,0,1.0553,-26.936,-19.05)">
                <path d="M172.834,309.767C177.066,301.087 185.529,301.087 189.761,305.427C193.992,309.767 193.992,318.447 189.761,327.127C188.309,330.317 185.74,332.844 182.75,335.779C179.638,338.833 176.071,342.274 172.834,344.487C169.328,342.09 165.953,339.125 162.671,335.769C160.011,333.05 157.234,330.041 155.908,327.127C151.676,318.447 151.676,309.767 155.908,305.427C160.139,301.087 168.603,301.087 172.834,309.767Z" style="fill:white;stroke:black;stroke-width:0.96px;"/>
            </g>
            <g id="Ziel">
                <g transform="matrix(1.03666,0,0,1.03666,-7.97754,-12.5221)">
                    <circle cx="174.509" cy="323.162" r="12.275" style="fill:none;stroke:black;stroke-width:1.03px;"/>
                </g>
                <g transform="matrix(0.949367,0,0,0.949367,5.33304,13.4092)">
                    <circle cx="176.609" cy="325.562" r="9.875" style="fill:none;stroke:black;stroke-width:0.56px;"/>
                </g>
                <g transform="matrix(1,0,0,1,-1.65505,-1.05)">
                    <circle cx="174.584" cy="323.537" r="5.65" style="fill:none;stroke:black;stroke-width:0.53px;"/>
                </g>
                <g transform="matrix(0.942216,0,0,0.942216,10.2476,18.313)">
                    <circle cx="172.659" cy="322.829" r="2.341" style="stroke:black;stroke-width:0.57px;"/>
                </g>
                <path d="M172.929,309.762L172.929,335.212" style="fill:none;stroke:black;stroke-width:0.53px;"/>
                <path d="M160.204,322.487L185.654,322.487" style="fill:none;stroke:black;stroke-width:0.53px;"/>
            </g>
        </g>
    </g>
</svg>
